<svg width="229" height="139" viewBox="0 0 229 139" fill="none" xmlns="http://www.w3.org/2000/svg">
<path d="M3.10235 42.0964L20.8568 3.54433L96.6022 3.34298L104.256 28.8616L225.519 28.5392L225.727 106.727L217.283 135.432L3.35197 136L3.10235 42.0964Z" stroke="white" stroke-width="4.82797"/>
<path d="M95.4903 93.3304L94.4727 114.822C96.6551 114.77 97.5781 113.81 98.685 112.658L108.686 102.637L130.255 117.662C134.194 119.737 136.907 118.531 137.847 113.903L150.22 48.3625L150.224 48.3586C151.322 42.5813 147.956 40.412 144.201 41.9118L63.1402 75.166C57.6086 77.4652 57.7668 80.5754 62.3494 81.8779L83.4169 87.888L131.276 56.3421C133.526 54.7741 135.624 55.5626 133.95 57.1169L95.4903 93.3304Z" fill="white"/>
</svg>
