<svg width="224" height="133" viewBox="0 0 224 133" fill="none" xmlns="http://www.w3.org/2000/svg">
<path d="M0.66406 39.0964L18.4185 0.54433L94.1639 0.342982L101.818 25.8616L223.081 25.5392L223.288 103.727L214.845 132.432L0.913677 133L0.66406 39.0964Z" fill="#00D5FF"/>
<path d="M118.886 72.671L145.348 39.6206L138.809 39.8515L115.832 68.5488L95.7121 41.3737L73.6402 42.1533L104.066 83.2468L76.3158 117.905L82.8551 117.674L107.118 87.3691L128.367 116.067L150.439 115.287L118.885 72.6711L118.886 72.671ZM110.298 83.3982L107.218 79.308L82.7095 46.7618L92.7535 46.407L112.532 72.6729L115.612 76.7631L141.321 110.905L131.277 111.259L110.298 83.3998L110.298 83.3982Z" fill="white"/>
</svg>
